<?xml version="1.0" encoding="UTF-8" standalone="no"?>
<!DOCTYPE svg PUBLIC "-//W3C//DTD SVG 1.1//EN" "http://www.w3.org/Graphics/SVG/1.1/DTD/svg11.dtd">
<svg width="100%" height="100%" viewBox="0 0 1075 696" version="1.1" xmlns="http://www.w3.org/2000/svg" xmlns:xlink="http://www.w3.org/1999/xlink" xml:space="preserve" xmlns:serif="http://www.serif.com/" style="fill-rule:evenodd;clip-rule:evenodd;stroke-linejoin:round;stroke-miterlimit:1.41421;">
    <g transform="matrix(1,0,0,1,-63.45,-171)">
        <g>
            <path d="M916.7,456.2L916.7,589.3L838.2,514.6L838.2,586.8L812.1,586.8L812.1,453.8L890.4,528.4L890.4,456.2L916.7,456.2ZM175.3,561.3C164.4,561.3 155.1,557.5 147.4,549.8C139.7,542.1 135.8,532.7 135.8,521.8C135.8,511 139.7,501.7 147.4,493.8C155,486.1 164.3,482.2 175.3,482.2C186.1,482.2 195.4,486.1 203.3,493.8L221.9,475.2C211.2,464.8 195.2,455.9 175.1,455.9L175.2,455.6C157.1,455.6 141.6,462.1 128.7,475C115.8,488 109.3,503.6 109.3,521.7C109.3,539.9 115.8,555.4 128.7,568.3C141.6,581 157.1,587.4 175.2,587.5C195.5,587.5 211.3,578.9 222,568.3L203.4,549.7C195.6,557.4 186.2,561.3 175.3,561.3ZM1092.5,513.6C1094.4,537.9 1086.4,555.5 1073.4,568.2C1060.5,581.1 1044.9,587.5 1026.8,587.5C1008.6,587.5 993,581.1 980.3,568.2C967.4,555.4 960.9,539.9 960.9,521.6C960.9,503.5 967.4,487.9 980.3,474.9C993.1,462 1008.6,455.5 1026.8,455.5L1026.9,455.7C1047,455.7 1063,464.6 1073.6,475L1055,493.6C1047.1,485.8 1037.8,481.9 1027.1,481.9C1016.2,481.9 1006.9,485.8 999.2,493.6C991.5,501.4 987.6,510.7 987.6,521.6C987.6,532.5 991.5,541.9 999.2,549.6C1006.8,557.3 1016.1,561.2 1027.1,561.2C1044,561.2 1057.1,550.7 1062.8,538.5L1025.7,538.5L1025.7,513.6L1092.5,513.6ZM261.5,586.6L289.7,586.6L298.5,566.8L343,566.8L351.8,586.6L380.1,586.6L320.7,453.9L261.5,586.6ZM424.5,453.5L424.5,586.6L450.6,586.6L450.6,532.7L488.2,584.5L525.7,532.7L525.7,586.6L551.9,586.6L551.9,453.5L488.2,540.9L424.5,453.5ZM762.9,456.5L762.9,586.5L736.8,586.5L736.8,456.5L762.9,456.5ZM646.7,456.5C659.3,456.5 670.1,461 678.9,469.8C687.9,478.8 692.4,489.5 692.4,502.1C692.4,514.8 687.9,525.5 678.9,534.2C669.9,543.1 659.1,547.5 646.6,547.5L627.1,547.5L627.1,586.5L601,586.5L601,456.5L646.7,456.5ZM332.7,543.8L320.8,516.3L308.8,543.8L332.7,543.8ZM646.7,521.7L627.2,521.6L627.2,482.4L646.7,482.4C657.4,482.4 666.3,491.5 666.3,502.1C666.3,512.8 657.4,521.7 646.7,521.7Z"/>
            <path d="M765,739.6C763.8,739.6 762.3,740.2 760.8,741.4C744.1,755.9 732.3,783.5 705.1,792.6C703.9,792.9 703,793.2 702.1,793.2C697.6,793.2 695.7,789.3 695.7,782.9C695.7,770.2 699,754.7 707.8,753.8C723.9,752.3 738.7,735.9 738.7,719.9C738.7,710.5 729.3,706.3 720.5,706.3C705.9,706.3 688.8,725.8 680.6,748.6C678.5,750.3 676.7,752 675.4,753.3C665.1,764.5 647.5,772.1 633,776.3C629.1,777.5 627.5,778.4 627.5,780.5C627.5,783.2 630.8,788.4 633,799C635.1,811.1 636.3,818.7 636.3,824.4C636.3,835.6 631.5,846.5 623,846.5C616.9,846.5 615.4,838.6 615.4,825C615.4,805.3 619,777.1 620.2,767.4C621.4,755.9 623.2,745.3 629.3,736.5C652.9,702.6 680.2,647.7 680.2,611.1C680.2,597.8 675.4,591.1 663.2,591.1C652.6,591.1 640.8,597.8 633.5,615.3C616.3,657.4 607.5,717.9 601,748.5C594.3,758.2 566.1,797.4 560.8,797.4C559.9,797.4 559.9,796.8 559.9,795.6C561.1,781.1 567.2,759.9 572.9,750.2L574.1,747.8C574.7,746.9 574.7,746 574.7,745.4C574.7,740.9 568,737.2 562.9,737.2C556,737.2 550.9,744.4 547.4,753.5C537.7,768.1 524,788.6 516.5,799.3C514.7,802 495.6,829.3 491.1,829.3C487.8,829.3 487.2,811.4 487.2,802.3C487.2,765 510.2,726.9 524.5,696.3C531.8,680.5 548.4,636.3 548.4,619.7C548.4,612.7 540.8,609.7 533.9,609.7C530.6,609.7 527.2,610.3 524.8,611.8C500.6,626.6 469.7,737.2 465.1,763.3C463.3,773.6 461.2,787.2 461.2,800.3C461.2,805.8 462.1,810.9 462.1,816.1C462.1,834 477.5,841.2 487.2,841.2C501.4,841.2 527.5,795.8 542.4,772.5C541.1,779.8 540.5,786.1 540.5,788.8C540.5,799.1 549,807.6 556.3,807.6C567.2,807.6 586.9,780.6 593.9,771.3C594.6,770.4 595.8,768.9 597.3,766.9C595.2,779.1 593,796.1 593,812.8C593,840.7 598.8,867 618.7,867C641.1,867 647.8,844.9 647.8,825.5C647.8,807.6 639.3,791.6 639.3,784.6C639.3,784 663.2,774.9 674.7,765.2C675.3,764.7 675.9,764.2 676.6,763.6C676,767.3 675.7,770.9 675.7,774.5C675.7,790.3 683.6,802.4 697.8,802.4C707.2,802.4 717.8,797.9 724.8,792.4C737.2,782.7 768.4,753.6 768.4,743.3C768.3,740.8 766.8,739.6 765,739.6ZM725.3,720.8C727.1,721.4 728,722.6 728,724.4C728,732 714.4,745.6 709.2,745.6C706.2,745.6 704.7,745 704.7,743.2C704.7,734.8 718.9,720.8 725.3,720.8ZM628.3,719C630.1,705.1 644.1,653.6 647.4,644.5C648,642.4 661.3,604.8 665.6,604.8C666.5,604.8 667.1,606.3 667.1,609.9C667.1,627.2 657.1,655.3 650.4,673.8C645.3,688 638.3,706.8 629.5,719.2C628.6,720.4 628.3,721.3 628,721.3C628,721.1 628,720.5 628.3,719ZM504.5,714.2C506.9,705.4 515.7,680.9 518.1,672.4C518.4,671.8 533.9,621.8 537.5,621.8C538.1,621.8 538.4,622.7 538.4,624.8C538.4,637.8 519.9,687.5 515.1,697.5C512.7,702.3 504.8,721.1 503.3,721.1C503,721.1 503,720.8 503,720.5C503,719 504.2,715.1 504.5,714.2ZM574.1,717.2C575,718.1 575.9,718.4 576.8,718.4C583.2,718.4 588.9,704.2 588.9,699C588.9,692.6 586.2,690.5 583.8,690.5C575.9,690.5 570.8,702.9 570.8,710.2C570.8,713 571.7,715.4 574.1,717.2Z"/>
            <path d="M346.9,309.9L376.8,342L456.8,250.7L497.1,264.2L577.8,171L714.5,298.9L744.3,264.1L809.5,349.1L846.2,309.8L823.9,309.8L860.3,266.5L837,266.5L865,227.9L849.7,227.9L887.5,183.4L925.3,227.9L910,227.9L938,266.5L914.7,266.5L951.1,309.8L928.8,309.8L972,356.3L897.6,356.3L897.6,401.45L1134.3,401.45C1134.71,401.532 1135.13,401.615 1135.54,401.697C1137.34,402.895 1137.38,403.856 1137.55,404.7L1137.55,408.7C1137.38,409.544 1137.34,410.505 1135.54,411.703L1134.3,411.95L66.7,411.95L65.456,411.703L64.402,410.998L63.697,409.944L63.45,408.7L63.45,404.7L63.697,403.456L64.402,402.402L65.456,401.697L66.7,401.45L295.4,401.45L295.4,356.3L221,356.3L264.3,309.9L242,309.9L278.4,266.6L255.1,266.6L283.1,228L267.8,228L305.6,183.5L343.4,228L328.1,228L356,266.6L332.8,266.6L369.2,309.9L346.9,309.9ZM315.6,356.3L315.6,401.45L324.536,401.45L364.1,356.3L315.6,356.3ZM815,356.3L849.724,401.45L877.4,401.45L877.4,356.3L815,356.3ZM818.3,381.4L791.8,368.1L760.5,368.1L760.5,337.4L745.3,319.4L745.3,283.8L818.3,381.4ZM497.906,339.031L548.615,380.635L466.187,260.792L438.339,294.646L466.187,306.734L466.187,339.031L497.906,339.031ZM706.5,364.8L633.683,298.9L633.683,263.035C614.559,269.921 600.047,267.72 600.047,267.72L600.047,238.782L587.304,227.9L587.304,198.22L576.7,183.4L706.5,306.5L728.3,368.9L706.5,364.8Z"/>
        </g>
    </g>
</svg>
